<?xml version="1.0" standalone="no"?>
<!DOCTYPE svg PUBLIC "-//W3C//DTD SVG 1.0//EN" "http://www.w3.org/TR/2001/REC-SVG-20010904/DTD/svg10.dtd">
<svg xmlns="http://www.w3.org/2000/svg" xmlns:xlink="http://www.w3.org/1999/xlink" id="body_-1910812450_47653" width="576" height="408.49829">

<g transform="matrix(0.001013314 0 0 -0.001013314 174.22084 280.74376)" >
    <g>
                <path d="M-111890.07 276006.46L116604.46 276006.46L116604.46 120581.86L-111890.07 120581.86L-111890.07 276006.46" stroke="#000000" stroke-width="770.36822" stroke-linecap="round" fill="none" />
                <path d="M116604.46 120581.86L395022.17 120581.86L395022.17 245305.3L116604.46 245305.3L116604.46 120581.86" stroke="#000000" stroke-width="770.36822" stroke-linecap="round" fill="none" />
                <path d="M311496.86 120581.86L32119.088 120581.86L32119.088 -25248.622L311496.86 -25248.622L311496.86 120581.86" stroke="#000000" stroke-width="770.36822" stroke-linecap="round" fill="none" />
                <path d="M32119.088 120581.86L-170453.79 120581.86L-170453.79 -125027.37L32119.088 -125027.37L32119.088 120581.86" stroke="#000000" stroke-width="770.36822" stroke-linecap="round" fill="none" />
        <g>
            <g>
                <path d="M-36045.248 198077.23L-36012.809 198961.57L-35915.492 199722.83L-35753.297 200361L-35527.134 200893.66L-35237.911 201338.41L-34885.63 201695.24L-34468.774 201955.96L-33985.827 202112.4L-33436.79 202164.54L-33025.087 202135.74L-32648.552 202049.34L-32307.185 201905.34L-32002.198 201707.06L-31734.804 201457.86L-31505.002 201157.72L-31309.156 200808.47L-31143.626 200411.93L-31008.413 199968.09L-30908.368 199446.34L-30848.34 198816.05L-30828.331 198077.23L-30860.467 197198.95L-30956.874 196441.34L-31117.554 195804.38L-31342.202 195271.41L-31630.514 194825.75L-31982.492 194467.41L-32399.955 194205.17L-32884.72 194047.82L-33436.79 193995.38L-34152.873 194087.54L-34758.602 194364.03L-35253.979 194824.84L-35693.573 195630.06L-35957.329 196714.19L-36045.248 198077.23M-35035.698 198077.23L-34984.463 196910.34L-34830.756 196036.3L-34574.579 195455.13L-34243.217 195092.85L-33863.953 194875.47L-33436.79 194803.02L-33009.626 194875.78L-32630.362 195094.06L-32299 195457.86L-32042.823 196039.94L-31889.116 196913.07L-31837.881 198077.23L-31889.117 199246.85L-32042.823 200121.8L-32299 200702.06L-32631.575 201062.83L-33014.476 201279.29L-33447.704 201351.45L-33868.501 201287.78L-34228.665 201096.79L-34528.195 200778.46L-34810.141 200153.33L-34979.309 199252.92L-35035.698 198077.23M-29835.153 198077.23L-29802.714 198961.57L-29705.396 199722.83L-29543.202 200361L-29317.039 200893.66L-29027.816 201338.41L-28675.535 201695.24L-28258.679 201955.96L-27775.732 202112.4L-27226.694 202164.54L-26814.993 202135.74L-26438.457 202049.34L-26097.09 201905.34L-25792.104 201707.06L-25524.708 201457.86L-25294.907 201157.72L-25099.061 200808.47L-24933.531 200411.93L-24798.318 199968.09L-24698.273 199446.34L-24638.245 198816.05L-24618.236 198077.23L-24650.373 197198.95L-24746.779 196441.34L-24907.458 195804.38L-25132.107 195271.41L-25420.419 194825.75L-25772.397 194467.41L-26189.86 194205.17L-26674.625 194047.82L-27226.694 193995.38L-27942.778 194087.54L-28548.507 194364.03L-29043.884 194824.84L-29483.478 195630.06L-29747.234 196714.19L-29835.153 198077.23M-28825.603 198077.23L-28774.368 196910.34L-28620.661 196036.3L-28364.484 195455.13L-28033.122 195092.85L-27653.858 194875.47L-27226.694 194803.02L-26799.531 194875.78L-26420.267 195094.06L-26088.904 195457.86L-25832.728 196039.94L-25679.021 196913.07L-25627.786 198077.23L-25679.022 199246.85L-25832.727 200121.8L-26088.904 200702.06L-26421.481 201062.83L-26804.381 201279.29L-27237.608 201351.45L-27658.406 201287.78L-28018.569 201096.79L-28318.099 200778.46L-28600.046 200153.33L-28769.213 199252.92L-28825.603 198077.23M-19925.194 194131.8L-20907.458 194131.8L-20907.458 200391.01L-21168.487 200165.45L-21478.627 199939.9L-21837.881 199714.34L-22208.657 199507.58L-22553.358 199338.41L-22871.988 199206.84L-22871.988 200156.36L-22345.689 200432.85L-21865.469 200745.72L-21431.333 201094.97L-21060.256 201458.77L-20769.214 201815.29L-20558.209 202164.54L-19925.194 202164.54L-19925.194 194131.8" stroke="#000000" stroke-width="246.7152" fill="#000000" fill-rule="evenodd" fill-opacity="1" />
            </g>
            <g>
                <path d="M-36045.248 180798.47L-36045.248 188798.47L-34986.585 188798.47L-34986.585 184831.21L-31013.87 188798.47L-29578.672 188798.47L-32934.743 185557L-29431.333 180798.47L-30828.331 180798.47L-33676.899 184847.58L-34986.585 183570.64L-34986.585 180798.47L-36045.248 180798.47M-28667.349 187668.86L-28667.349 188798.47L-27685.084 188798.47L-27685.084 187668.86L-28667.349 187668.86M-28667.349 186593.83L-27685.084 186593.83L-27685.084 180798.47L-28667.349 180798.47M-24050.705 181677.05L-23908.823 180809.38L-24175.611 180760.88L-24422.996 180731.77L-24650.978 180722.07L-24980.826 180740.87L-25257.314 180797.26L-25480.446 180891.24L-25657.497 181015.84L-25795.741 181164.09L-25895.18 181335.99L-25961.878 181587.31L-26001.895 181973.85L-26015.234 182495.6L-26015.234 185829.85L-26735.562 185829.85L-26735.562 186593.83L-26015.234 186593.83L-26015.234 188029.03L-25038.427 188618.39L-25038.427 186593.83L-24050.705 186593.83L-24050.705 185829.85L-25038.427 185829.85L-25038.427 182441.03L-25032.668 182194.26L-25015.386 182014.17L-24986.585 181900.79L-24944.749 181826.21L-24888.359 181762.54L-24817.417 181709.79L-24727.984 181670.38L-24616.114 181646.73L-24481.81 181638.85L-24361.15 181643.1L-24217.448 181655.83L-24050.705 181677.05M-19314.007 182921.25L-18348.113 182795.74L-18508.491 182178.19L-18778.612 181657.04L-19158.482 181232.3L-19626.271 180918.52L-20160.149 180730.26L-20760.119 180667.5L-21501.366 180753.9L-22138.927 181013.11L-22672.806 181445.13L-23074.505 182038.43L-23315.522 182781.49L-23395.862 183674.32L-23361.302 184273.99L-23257.617 184821.51L-23084.812 185316.89L-22841.369 185747.08L-22525.769 186099.06L-22138.018 186372.82L-21701.76 186568.36L-21240.64 186685.69L-20754.662 186724.8L-20163.485 186671.75L-19648.704 186512.58L-19210.323 186247.31L-18858.043 185884.42L-18601.562 185432.39L-18440.883 184891.24L-19395.862 184743.9L-19510.158 185101.03L-19671.139 185393.89L-19878.809 185622.48L-20125.892 185786.19L-20405.109 185884.42L-20716.462 185917.16L-21180.311 185858.04L-21582.31 185680.69L-21922.465 185385.1L-22180.159 184961.57L-22334.774 184400.41L-22386.312 183701.61L-22336.594 182994.01L-22187.434 182428.3L-21938.836 182004.47L-21610.203 181710.4L-21220.934 181533.95L-20771.033 181475.14L-20406.626 181514.55L-20084.66 181632.79L-19805.139 181829.85L-19578.371 182108.76L-19414.658 182472.56L-19314.007 182921.25M-17507.731 180798.47L-17507.731 188798.47L-16525.467 188798.47L-16525.467 185928.07L-16027.06 186370.7L-15448.613 186636.27L-14790.132 186724.8L-14379.645 186696.61L-14006.746 186612.02L-13671.442 186471.05L-13384.95 186280.36L-13158.482 186046.61L-12992.042 185769.82L-12878.356 185426.63L-12810.141 184993.71L-12787.404 184471.05L-12787.404 180798.47L-13769.669 180798.47L-13769.669 184471.05L-13805.141 184917.61L-13911.551 185275.05L-14088.905 185543.35L-14331.138 185729.8L-14632.182 185841.67L-14992.042 185878.96L-15277.325 185853.8L-15551.084 185778.31L-15813.325 185652.49L-16045.25 185483.63L-16228.059 185278.99L-16361.756 185038.58L-16452.708 184747.54L-16507.276 184391.01L-16525.467 183969L-16525.467 180798.47L-17507.731 180798.47M-7330.3787 182664.77L-6315.3719 182539.26L-6520.9224 181990.53L-6817.418 181530.32L-7204.8671 181158.63L-7677.8118 180885.78L-8230.7877 180722.07L-8863.8029 180667.5L-9652.9518 180754.51L-10325.072 181015.54L-10880.174 181450.58L-11294 182042.67L-11542.292 182774.82L-11625.058 183647.04L-11541.385 184549.27L-11290.36 185305.97L-10871.988 185917.16L-10320.224 186365.85L-9669.0171 186635.06L-8918.3732 186724.8L-8190.7721 186636.88L-7557.7544 186373.12L-7019.3282 185933.53L-6610.0538 185334.47L-6364.4848 184592.31L-6282.6298 183707.06L-6283.2386 183639.16L-6285.0548 183551.84L-6288.0868 183445.13L-10610.051 183445.13L-10525.772 182858.19L-10345.688 182370.7L-10069.805 181982.64L-9719.3455 181700.7L-9315.5231 181531.53L-8858.3459 181475.14L-8515.7683 181506.67L-8208.3532 181601.26L-7936.1086 181758.91L-7699.0335 181985.68L-7497.1208 182287.63L-7330.3787 182664.77M-7319.4647 184252.77L-7389.8021 184699.64L-7513.4919 185065.26L-7690.5424 185349.63L-8034.3374 185664.92L-8439.9737 185854.1L-8907.4592 185917.16L-9334.6253 185866.83L-9713.886 185715.86L-10045.249 185464.23L-10306.885 185128.32L-10476.96 184724.5L-10555.48 184252.77M-5087.5411 180798.47L-5087.5411 186593.83L-4203.5029 186593.83L-4203.5029 185769.82L-3714.7987 186300.36L-3099.9707 186618.69L-2359.0282 186724.8L-2019.1797 186703.88L-1698.1214 186641.12L-1395.8632 186536.53L-1127.5624 186397.98L-908.36853 186233.36L-738.29162 186042.67L-607.32603 185826.21L-505.45813 185584.28L-432.69818 185316.89L-402.38442 185089.51L-384.19089 184771.18L-378.12792 184361.91L-378.12792 180798.47L-1360.3925 180798.47L-1360.3925 184323.71L-1373.1285 184690.24L-1411.3244 184989.46L-1474.9901 185221.39L-1571.0973 185406.32L-1706.6101 185564.57L-1881.5385 185696.15L-2087.3925 185794.68L-2315.6748 185853.8L-2566.3952 185873.5L-2965.6705 185829.24L-3326.7405 185696.45L-3649.6148 185475.14L-3902.763 185130.14L-4054.6471 184626.27L-4105.2765 183963.54L-4105.2765 180798.47L-5087.5411 180798.47" stroke="#000000" stroke-width="246.7152" fill="#000000" fill-rule="evenodd" fill-opacity="1" />
            </g>
        </g>
        <g>
            <g>
                <path d="M245527.69 198077.23L245560.13 198961.57L245657.45 199722.83L245819.64 200361L246045.8 200893.66L246335.03 201338.41L246687.31 201695.24L247104.16 201955.96L247587.11 202112.4L248136.15 202164.54L248547.85 202135.74L248924.38 202049.34L249265.75 201905.34L249570.74 201707.06L249838.13 201457.86L250067.93 201157.72L250263.78 200808.47L250429.31 200411.93L250564.52 199968.09L250664.57 199446.34L250724.6 198816.05L250744.61 198077.23L250712.47 197198.95L250616.06 196441.34L250455.38 195804.38L250230.74 195271.41L249942.42 194825.75L249590.45 194467.41L249172.98 194205.17L248688.22 194047.82L248136.15 193995.38L247420.06 194087.54L246814.33 194364.03L246318.96 194824.84L245879.36 195630.06L245615.61 196714.19L245527.69 198077.23M246537.24 198077.23L246588.47 196910.34L246742.18 196036.3L246998.36 195455.13L247329.72 195092.85L247708.98 194875.47L248136.15 194803.02L248563.31 194875.78L248942.57 195094.06L249273.94 195457.86L249530.11 196039.94L249683.82 196913.07L249735.06 198077.23L249683.82 199246.85L249530.11 200121.8L249273.94 200702.06L248941.36 201062.83L248558.46 201279.29L248125.23 201351.45L247704.44 201287.78L247344.27 201096.79L247044.74 200778.46L246762.8 200153.33L246593.63 199252.92L246537.24 198077.23M251737.78 198077.23L251770.22 198961.57L251867.54 199722.83L252029.74 200361L252255.9 200893.66L252545.12 201338.41L252897.4 201695.24L253314.26 201955.96L253797.21 202112.4L254346.24 202164.54L254757.94 202135.74L255134.48 202049.34L255475.85 201905.34L255780.83 201707.06L256048.23 201457.86L256278.03 201157.72L256473.88 200808.47L256639.41 200411.93L256774.62 199968.09L256874.66 199446.34L256934.69 198816.05L256954.7 198077.23L256922.56 197198.95L256826.16 196441.34L256665.48 195804.38L256440.83 195271.41L256152.52 194825.75L255800.54 194467.41L255383.08 194205.17L254898.31 194047.82L254346.24 193995.38L253630.16 194087.54L253024.43 194364.03L252529.05 194824.84L252089.46 195630.06L251825.7 196714.19L251737.78 198077.23M252747.33 198077.23L252798.57 196910.34L252952.28 196036.3L253208.45 195455.13L253539.82 195092.85L253919.08 194875.47L254346.24 194803.02L254773.41 194875.78L255152.67 195094.06L255484.03 195457.86L255740.21 196039.94L255893.92 196913.07L255945.15 198077.23L255893.92 199246.85L255740.21 200121.8L255484.03 200702.06L255151.46 201062.83L254768.56 201279.29L254335.33 201351.45L253914.53 201287.78L253554.37 201096.79L253254.84 200778.46L252972.89 200153.33L252803.72 199252.92L252747.33 198077.23M263110.23 195075.87L263110.23 194131.8L257822.37 194131.8L257830.25 194365.24L257868.45 194592.62L257936.97 194813.93L258098.55 195172.28L258314.11 195526.98L258583.62 195878.05L258924.08 196245.49L259352.46 196649.31L259868.75 197089.51L260644.26 197753.15L261231.8 198317.95L261631.37 198783.92L261886.03 199192.89L262038.83 199586.71L262089.76 199965.36L262043.38 200334.32L261904.22 200662.65L261672.3 200950.36L261365.8 201173.18L261002.91 201306.88L260583.62 201351.45L260142.21 201304.15L259763.86 201162.27L259448.56 200925.8L259211.48 200605.65L259067.78 200212.75L259017.46 199747.08L258007.91 199850.77L258140.69 200544.11L258400.81 201118.01L258788.26 201572.46L259290.91 201901.39L259896.64 202098.76L260605.45 202164.54L261319.71 202093.6L261927.26 201880.78L262428.1 201526.07L262800.99 201066.47L263024.73 200538.96L263099.31 199943.53L263077.48 199625.21L263012 199310.52L262902.86 198999.47L262743.09 198684.78L262525.72 198359.18L262250.74 198022.66L261879.97 197638.25L261375.2 197168.94L260736.42 196614.75L260217.4 196173.03L259839.04 195837.43L259601.36 195607.93L259443.71 195431.18L259305.47 195253.83L259186.62 195075.87L263110.23 195075.87" stroke="#000000" stroke-width="246.7152" fill="#000000" fill-rule="evenodd" fill-opacity="1" />
            </g>
            <g>
                <path d="M245527.69 180798.47L245527.69 188798.47L248529.05 188798.47L249099.92 188771.49L249590.14 188690.54L249999.72 188555.63L250342.3 188364.64L250631.52 188115.43L250867.39 187808.02L251041.71 187466.35L251146.3 187114.37L251181.17 186752.08L251150.24 186416.78L251057.48 186094.82L250902.86 185786.19L250685.79 185503.64L250405.66 185259.89L250062.48 185054.95L250509.04 184879.72L250881.03 184637.79L251178.44 184329.16L251395.2 183966.58L251525.26 183562.76L251568.62 183117.71L251542.24 182751.78L251463.11 182403.44L251331.24 182072.68L251160.55 181775.28L250965.01 181526.98L250744.61 181327.8L250492.07 181167.43L250200.12 181035.55L249868.75 180932.17L249491.31 180857.89L249061.11 180813.32L248578.17 180798.47L245527.69 180798.47M248316.23 185436.94L248741.27 185447.25L249077.79 185478.17L249325.78 185529.71L249572.86 185627.33L249775.68 185760.12L249934.24 185928.07L250047.93 186129.38L250116.14 186362.21L250138.88 186626.57L250117.65 186881.54L250053.99 187115.28L249947.88 187327.8L249802.36 187508.49L249620.46 187646.73L249402.18 187742.53L249109.32 187804.68L248703.68 187841.97L248185.26 187854.4L246586.35 187854.4L246586.35 185436.94M248578.17 181742.53L248886.19 181746.78L249126.29 181759.51L249298.49 181780.73L249528.9 181834.09L249732.63 181906.85L249909.68 181999.01L250063.69 182116.34L250198.3 182264.59L250313.5 182443.76L250401.42 182648.4L250454.17 182873.05L250471.75 183117.71L250446.29 183402.99L250369.89 183662.2L250242.56 183895.33L250070.06 184093.6L249858.14 184248.22L249606.82 184359.18L249296.07 184433.46L248905.89 184478.02L248436.28 184492.88L246586.35 184492.88L246586.35 181742.53M256867.39 182664.77L257882.4 182539.26L257676.85 181990.53L257380.35 181530.32L256992.9 181158.63L256519.96 180885.78L255966.98 180722.07L255333.96 180667.5L254544.82 180754.51L253872.69 181015.54L253317.59 181450.58L252903.77 182042.67L252655.47 182774.82L252572.71 183647.04L252656.38 184549.27L252907.41 185305.97L253325.78 185917.16L253877.54 186365.85L254528.75 186635.06L255279.39 186724.8L256007 186636.88L256640.01 186373.12L257178.44 185933.53L257587.72 185334.47L257833.28 184592.31L257915.14 183707.06L257914.53 183639.16L257912.71 183551.84L257909.68 183445.13L253587.72 183445.13L253672 182858.19L253852.08 182370.7L254127.96 181982.64L254478.42 181700.7L254882.24 181531.53L255339.42 181475.14L255682 181506.67L255989.41 181601.26L256261.66 181758.91L256498.74 181985.68L256700.65 182287.63L256867.39 182664.77M256878.3 184252.77L256807.97 184699.64L256684.28 185065.26L256507.23 185349.63L256163.43 185664.92L255757.79 185854.1L255290.31 185917.16L254863.14 185866.83L254483.88 185715.86L254152.52 185464.23L253890.88 185128.32L253720.81 184724.5L253642.29 184252.77M262870.12 180798.47L262870.12 181529.71L262445.07 181050.71L261904.83 180763.3L261249.38 180667.5L260799.78 180709.95L260375.04 180837.27L259975.17 181049.49L259616.82 181337.81L259316.68 181693.42L259074.76 182116.34L258897.4 182595.65L258790.99 183120.43L258755.52 183690.69L258787.65 184251.25L258884.06 184776.03L259044.74 185265.04L259269.69 185699.49L259558.92 186060.56L259912.41 186348.26L260313.2 186557.45L260744.3 186682.96L261205.72 186724.8L261542.24 186700.24L261853.29 186626.57L262138.88 186503.79L262394.75 186341.6L262616.67 186149.69L262804.63 185928.07L262804.63 188798.47L263781.44 188798.47L263781.44 180798.47L262870.12 180798.47M259765.07 183690.69L259817.21 183010.99L259973.65 182456.19L260234.37 182026.3L260566.04 181720.1L260935.3 181536.38L261342.15 181475.14L261749.91 181533.65L262114.62 181709.19L262436.28 182001.74L262686.4 182414.36L262836.47 182950.05L262886.49 183608.84L262835.55 184331.59L262682.76 184913.67L262428.1 185355.09L262098.86 185664.32L261722.32 185849.86L261298.49 185911.7L260885.88 185852.28L260521.17 185674.02L260204.36 185376.91L259960.31 184951.87L259813.88 184389.8L259765.07 183690.69M265309.41 180798.47L265309.41 186593.83L266193.45 186593.83L266193.45 185715.25L266413.24 186079.66L266621.52 186350.69L266818.28 186528.35L267015.64 186637.49L267225.73 186702.97L267448.56 186724.8L267781.44 186689.63L268117.96 186584.13L268458.11 186408.29L268119.78 185496.97L267879.67 185615.2L267639.56 185686.15L267399.45 185709.79L267192.08 185688.27L266999.27 185623.69L266821 185516.07L266666.39 185370.24L266544.51 185191.07L266455.38 184978.55L266364.43 184618.39L266309.86 184236.4L266291.67 183832.58L266291.67 180798.47L265309.41 180798.47M269031.1 180798.47L269031.1 186593.83L269915.14 186593.83L269915.14 185715.25L270134.93 186079.66L270343.21 186350.69L270539.97 186528.35L270737.33 186637.49L270947.43 186702.97L271170.25 186724.8L271503.13 186689.63L271839.65 186584.13L272179.8 186408.29L271841.47 185496.97L271601.36 185615.2L271361.25 185686.15L271121.14 185709.79L270913.77 185688.27L270720.96 185623.69L270542.7 185516.07L270388.08 185370.24L270266.21 185191.07L270177.07 184978.55L270086.12 184618.39L270031.55 184236.4L270013.36 183832.58L270013.36 180798.47L269031.1 180798.47M272398.08 183696.15L272497.52 184676.6L272795.84 185471.5L273293.04 186080.87L273827.82 186438.61L274435.37 186653.25L275115.68 186724.8L275863.9 186637.79L276515.11 186376.76L277069.3 185941.72L277490.7 185353.27L277743.54 184632.03L277827.82 183778.01L277790.53 183085.27L277678.67 182498.64L277492.22 182018.11L277234.52 181622.48L276908.92 181290.51L276515.41 181022.21L276074.9 180825.15L275608.33 180706.91L275115.68 180667.5L274356.24 180754.21L273700.49 181014.32L273148.43 181447.86L272731.57 182044.49L272481.46 182793.92L272398.08 183696.15M273407.63 183696.15L273461.6 183016.14L273623.49 182460.44L273893.31 182029.03L274244.98 181721.31L274652.44 181536.68L275115.68 181475.14L275575.89 181536.99L275981.53 181722.53L276332.6 182031.76L276602.42 182467.71L276764.31 183033.42L276818.28 183728.89L276764.01 184387.68L276601.21 184930.65L276329.87 185357.81L275977.89 185665.53L275573.16 185850.16L275115.68 185911.7L274652.44 185850.46L274244.98 185666.74L273893.31 185360.54L273623.49 184930.65L273461.6 184375.85L273407.63 183696.15M278973.8 180798.47L278973.8 186593.83L279852.38 186593.83L279852.38 185780.73L280054.29 186046.01L280296.22 186274.29L280578.17 186465.59L280894.06 186609.6L281237.86 186696L281609.54 186724.8L282013.06 186695.09L282365.04 186605.96L282665.48 186457.4L282913.16 186255.5L283106.89 186006.29L283246.65 185709.79L283751.12 186273.69L284347.76 186612.02L285036.56 186724.8L285567.1 186671.75L286009.12 186512.58L286362.61 186247.31L286620.3 185871.68L286774.92 185381.46L286826.46 184776.64L286826.46 180798.47L285849.65 180798.47L285849.65 184449.22L285839.04 184805.44L285807.21 185088.3L285754.15 185297.79L285673.21 185459.38L285557.7 185598.53L285407.63 185715.25L285230.58 185803.17L285034.13 185855.92L284818.27 185873.5L284433.85 185828.33L284095.52 185692.81L283803.27 185466.95L283578.92 185141.66L283444.32 184707.82L283399.45 184165.45L283399.45 180798.47L282417.18 180798.47L282417.18 184563.82L282390.5 184964L282310.47 185291.42L282177.07 185546.08L281983.04 185727.98L281721.11 185837.12L281391.26 185873.5L281121.74 185849.25L280866.18 185776.49L280624.55 185655.22L280411.42 185487.27L280241.35 185274.44L280114.32 185016.75L280026.4 184695.39L279973.65 184291.57L279956.07 183805.29L279956.07 180798.47L278973.8 180798.47" stroke="#000000" stroke-width="246.7152" fill="#000000" fill-rule="evenodd" fill-opacity="1" />
            </g>
        </g>
            <g>
                <path d="M163244.32 51655.061L166316.63 59655.061L167457.14 59655.061L170731.36 51655.061L169525.36 51655.061L168592.21 54077.98L165247.05 54077.98L164368.47 51655.061L163244.32 51655.061M168264.78 54940.19L167429.86 57155.743L167197.03 57788.758L167007.85 58341.736L166862.33 58814.679L166746.52 58302.931L166602.82 57793.608L166431.22 57286.711L165552.64 54940.19M171178.84 55600.49L171211.27 56484.832L171308.59 57246.087L171470.79 57884.256L171696.95 58416.922L171986.17 58861.67L172338.45 59218.498L172755.31 59479.223L173238.26 59635.658L173787.29 59687.803L174199 59659.002L174575.53 59572.599L174916.9 59428.594L175221.88 59230.322L175489.28 58981.118L175719.08 58680.981L175914.93 58331.732L176080.46 57935.188L176215.67 57491.35L176315.71 56969.598L176375.74 56339.311L176395.75 55600.49L176363.62 54722.213L176267.21 53964.595L176106.53 53327.639L175881.88 52794.67L175593.57 52349.012L175241.59 51990.668L174824.13 51728.428L174339.36 51571.083L173787.29 51518.635L173071.21 51610.799L172465.48 51887.287L171970.1 52348.103L171530.51 53153.318L171266.75 54237.447L171178.84 55600.49M172188.39 55600.49L172239.62 54433.597L172393.33 53559.563L172649.5 52978.39L172980.87 52616.105L173360.13 52398.732L173787.29 52326.275L174214.46 52399.036L174593.72 52617.316L174925.08 52981.118L175181.26 53563.202L175334.97 54436.325L175386.2 55600.49L175334.97 56770.114L175181.26 57645.056L174925.08 58225.32L174592.51 58586.09L174209.61 58802.552L173776.38 58874.706L173355.58 58811.041L172995.42 58620.045L172695.89 58301.718L172413.94 57676.586L172244.77 56776.176L172188.39 55600.49M181088.79 51655.061L180106.53 51655.061L180106.53 57914.269L179845.5 57688.713L179535.36 57463.155L179176.11 57237.598L178805.33 57030.838L178460.63 56861.67L178142 56730.095L178142 57679.617L178668.3 57956.107L179148.52 58268.976L179582.66 58618.226L179953.73 58982.028L180244.77 59338.553L180455.78 59687.803L181088.79 59687.803L181088.79 51655.061M184150.19 51655.061L184150.19 52773.751L185268.88 52773.751L185268.88 51655.061L184150.19 51655.061M186698.62 53750.559L187729.99 53837.871L187840.04 53377.36L188017.4 52999.914L188262.05 52705.538L188559.46 52494.837L188895.07 52368.415L189268.88 52326.275L189717.56 52385.697L190117.75 52563.959L190469.42 52861.063L190742.27 53256.396L190905.98 53729.337L190960.55 54279.89L190908.1 54800.734L190750.76 55242.752L190488.52 55605.947L190141.39 55875.768L189729.39 56037.659L189252.51 56091.623L188946.3 56067.673L188660.72 55995.822L188395.75 55876.07L188159.28 55718.12L187959.19 55531.671L187795.48 55316.725L186873.24 55436.78L187648.14 59545.92L191626.31 59545.92L191626.31 58607.312L188433.95 58607.312L188002.85 56457.243L188490.94 56736.159L188994.81 56903.507L189514.44 56959.29L190176.56 56878.648L190765.92 56636.719L191282.52 56233.505L191682.7 55703.568L191922.81 55081.466L192002.85 54367.203L191932.51 53675.98L191721.51 53050.24L191369.83 52489.986L190794.42 51950.347L190094.1 51626.563L189268.88 51518.635L188585.84 51586.546L187991.93 51790.274L187487.16 52129.822L187092.73 52581.543L186829.89 53121.788L186698.62 53750.559M196057.42 51655.061L196057.42 53570.477L192586.75 53570.477L192586.75 54470.886L196237.5 59655.061L197039.68 59655.061L197039.68 54470.886L198120.17 54470.886L198120.17 53570.477L197039.68 53570.477L197039.68 51655.061L196057.42 51655.061M196057.42 58077.98L193552.64 54470.886L196057.42 54470.886M200630.4 55993.396L200258.11 56163.777L199956.16 56376.601L199724.54 56631.868L199560.82 56926.548L199462.6 57257.607L199429.86 57625.047L199499.58 58176.207L199708.77 58665.52L200057.42 59092.987L200521.87 59423.44L201078.49 59621.712L201727.27 59687.803L202380.29 59620.196L202942.36 59417.377L203413.49 59079.344L203768.19 58644.298L203981.02 58150.437L204051.96 57597.762L204019.52 57242.752L203922.2 56919.878L203760.01 56629.14L203531.72 56375.389L203236.13 56163.473L202873.24 55993.396L203325.26 55800.582L203699.07 55542.282L203994.66 55218.499L204208.39 54838.933L204336.63 54413.284L204379.38 53941.555L204298.73 53293.988L204056.81 52719.181L203653.6 52217.134L203118.8 51829.08L202482.15 51596.246L201743.64 51518.635L201005.12 51596.55L200368.47 51830.292L199833.68 52219.863L199430.46 52725.851L199188.54 53308.843L199107.89 53968.84L199151.85 54460.882L199283.73 54896.534L199503.53 55275.797L199804.57 55589.577L200180.2 55828.776L200630.4 55993.396M200433.95 57657.789L200474.57 57302.477L200596.45 56993.245L200799.57 56730.095L201067.57 56530.004L201384.08 56409.949L201749.09 56369.931L202104.71 56409.647L202414.85 56528.791L202679.52 56727.366L202881.12 56983.544L203002.09 57275.494L203042.41 57603.219L203000.87 57944.283L202876.27 58247.148L202668.6 58511.814L202399.08 58716.452L202088.95 58839.235L201738.18 58880.163L201384.68 58840.145L201073.64 58720.09L200805.03 58519.999L200598.87 58264.126L200475.18 57976.722L200433.95 57657.789M200117.44 53963.383L200139.57 53686.288L200205.97 53415.255L200316.62 53150.286L200470.93 52908.055L200668.3 52705.235L200908.71 52541.827L201177.32 52422.077L201459.27 52350.225L201754.55 52326.275L202196.57 52376.602L202584.02 52527.578L202916.9 52779.208L203171.56 53108.449L203324.36 53492.259L203375.29 53930.641L203322.84 54376.298L203165.5 54767.384L202903.26 55103.901L202562.19 55361.595L202168.38 55516.21L201721.81 55567.748L201286.15 55516.817L200903.26 55364.019L200573.11 55109.358L200319.96 54778.299L200168.07 54396.307L200117.44 53963.383" stroke="#000000" stroke-width="246.7152" fill="#000000" fill-rule="evenodd" fill-opacity="1" />
            </g>
        <g>
            <g>
                <path d="M-75086.197 -753.28349L-75086.197 185.32493L-71697.384 190.78196L-71697.384 -2777.84L-72223.078 -3158.3151L-72759.685 -3470.2761L-73307.206 -3713.7199L-73865.036 -3888.0406L-74432.566 -3992.6347L-75009.798 -4027.4989L-75771.66 -3971.4118L-76485.621 -3803.1546L-77151.681 -3522.724L-77741.343 -3136.1838L-78226.109 -2649.6L-78605.978 -2062.9696L-78878.83 -1401.4561L-79042.54 -690.22457L-79097.111 70.727393L-79042.843 831.98308L-78880.042 1558.6764L-78608.707 2250.8091L-78235.507 2867.7566L-77767.112 3368.8931L-77203.523 3754.2197L-76561.413 4027.0713L-75857.456 4190.7818L-75091.654 4245.3521L-74531.703 4214.126L-74008.737 4120.4468L-73522.759 3964.3152L-73088.926 3752.401L-72722.395 3491.3729L-72423.168 3181.232L-72178.815 2812.58L-71976.905 2376.0175L-71817.438 1871.5458L-72772.418 1609.6086L-72902.174 1987.9629L-73051.332 2308.1079L-73219.894 2570.0451L-73423.623 2787.4171L-73678.284 2973.865L-73983.877 3129.3903L-74327.064 3246.1104L-74694.503 3316.1418L-75086.197 3339.4858L-75548.225 3314.9295L-75966.597 3241.2593L-76341.313 3118.4762L-76671.463 2955.6753L-76956.137 2761.9505L-77195.337 2537.303L-77395.731 2289.3119L-77563.989 2025.5552L-77700.112 1746.0343L-77869.886 1237.3187L-77971.751 700.71059L-78005.705 136.2117L-77964.778 -538.03351L-77841.995 -1134.669L-77637.356 -1653.6927L-77354.5 -2092.6793L-76997.065 -2449.2059L-76565.051 -2723.2697L-76086.045 -2917.2965L-75587.637 -3033.714L-75069.826 -3072.5194L-74615.074 -3043.1112L-74167.597 -2954.8903L-73727.397 -2807.8536L-73326.003 -2627.4678L-72994.943 -2439.2013L-72734.219 -2243.0515L-72734.219 -753.28349L-75086.197 -753.28349M-70087.561 -3891.0733L-70087.561 4108.9264L-64690.563 4108.9264L-64690.563 3164.861L-69028.898 3164.861L-69028.898 687.3713L-65274.464 687.3713L-65274.464 -256.69415L-69028.898 -256.69415L-69028.898 -3891.0733L-70087.561 -3891.0733M-63168.052 -3891.0733L-63168.052 -2772.383L-62049.362 -2772.383L-62049.362 -3891.0733L-63168.052 -3891.0733M-60619.621 54.356316L-60587.184 938.69825L-60489.865 1699.9527L-60327.67 2338.1215L-60101.509 2870.7883L-59812.284 3315.5355L-59460.003 3672.3643L-59043.149 3933.0892L-58560.2 4089.5236L-58011.163 4141.6686L-57599.463 4112.8679L-57222.926 4026.4646L-56881.559 3882.4598L-56576.573 3684.1882L-56309.177 3434.9837L-56079.376 3134.8473L-55883.531 2785.598L-55717.999 2389.0537L-55582.787 1945.2157L-55482.743 1423.4639L-55422.714 793.17685L-55402.705 54.356316L-55434.843 -823.92102L-55531.248 -1581.5388L-55691.927 -2218.4949L-55916.577 -2751.4636L-56204.887 -3197.1216L-56556.866 -3555.4662L-56974.33 -3817.7056L-57459.094 -3975.051L-58011.163 -4027.4989L-58727.248 -3935.3348L-59332.976 -3658.8466L-59828.353 -3198.031L-60267.948 -2392.8156L-60531.702 -1308.6874L-60619.621 54.356316M-59610.072 54.356316L-59558.838 -1112.537L-59405.13 -1986.5714L-59148.953 -2567.7445L-58817.592 -2930.0295L-58438.327 -3147.402L-58011.163 -3219.8591L-57584.001 -3147.0978L-57204.736 -2928.8178L-56873.373 -2565.016L-56617.198 -1982.9324L-56463.49 -1109.8092L-56412.254 54.356316L-56463.492 1223.9794L-56617.196 2098.9219L-56873.373 2679.1857L-57205.95 3039.9561L-57588.85 3256.4177L-58022.077 3328.5717L-58442.876 3264.9068L-58803.038 3073.9105L-59102.568 2755.584L-59384.516 2130.4518L-59553.682 1230.042L-59610.072 54.356316M-50709.663 -3891.0733L-51691.927 -3891.0733L-51691.927 2368.1352L-51952.957 2142.5786L-52263.096 1917.021L-52622.35 1691.464L-52993.127 1484.7038L-53337.826 1315.5355L-53656.456 1183.9606L-53656.456 2133.4831L-53130.159 2409.9728L-52649.938 2722.8418L-52215.802 3072.0915L-51844.726 3435.8936L-51553.682 3792.4189L-51342.678 4141.6686L-50709.663 4141.6686L-50709.663 -3891.0733M-43037.084 -2947.0078L-43037.084 -3891.0733L-48324.942 -3891.0733L-48317.063 -3657.6329L-48278.86 -3430.2579L-48210.345 -3208.945L-48048.759 -2850.5995L-47833.203 -2495.8938L-47563.687 -2144.825L-47223.232 -1777.3845L-46794.852 -1373.5654L-46278.558 -933.36534L-45503.056 -269.72969L-44915.513 295.07174L-44515.938 761.04115L-44261.28 1170.0154L-44108.48 1563.8302L-44057.548 1942.4872L-44103.936 2311.4432L-44243.087 2639.7738L-44475.011 2927.4803L-44781.516 3150.3092L-45144.405 3284.006L-45563.687 3328.5717L-46005.103 3281.2778L-46383.453 3139.3948L-46698.749 2902.9237L-46935.829 2582.7786L-47079.527 2189.8723L-47129.854 1724.2062L-48139.403 1827.8896L-48006.618 2521.2355L-47746.497 3095.1323L-47359.049 3549.5813L-46856.399 3878.519L-46250.666 4075.8811L-45541.859 4141.6686L-44827.598 4070.7275L-44220.046 3857.9032L-43719.213 3503.1966L-43346.319 3043.594L-43122.577 2516.0811L-43047.998 1920.6591L-43069.83 1602.333L-43135.31 1287.644L-43244.451 976.59367L-43404.224 661.90573L-43621.592 336.30254L-43896.566 -0.21394162L-44267.343 -384.63046L-44772.115 -853.93542L-45410.89 -1408.1265L-45929.917 -1849.8417L-46308.268 -2185.4497L-46545.952 -2414.9478L-46703.602 -2591.694L-46841.844 -2769.0483L-46960.686 -2947.0078L-43037.084 -2947.0078M-41989.335 -1795.5754L-40957.957 -1708.263L-40847.911 -2168.7745L-40670.554 -2546.2197L-40425.897 -2840.5958L-40128.493 -3051.2968L-39792.882 -3177.7188L-39419.076 -3219.8591L-38970.391 -3160.4372L-38570.205 -2982.1754L-38218.531 -2685.0706L-37945.683 -2289.7385L-37781.968 -1816.7972L-37727.398 -1266.2439L-37779.85 -745.4004L-37937.19 -303.38209L-38199.431 59.813341L-38546.562 329.63355L-38958.563 491.52464L-39435.447 545.48863L-39741.65 521.53893L-40027.231 449.68743L-40292.2 329.93611L-40528.675 171.98613L-40728.762 -14.462935L-40892.473 -229.40902L-41814.711 -109.35445L-41039.813 3999.7859L-37061.641 3999.7859L-37061.641 3061.1775L-40254.001 3061.1775L-40685.106 911.10936L-40197.009 1190.0245L-39693.14 1357.3727L-39173.51 1413.1557L-38511.394 1332.5135L-37922.032 1090.5847L-37405.434 687.3713L-37005.255 157.43404L-36765.142 -464.66759L-36685.106 -1178.9315L-36755.445 -1870.154L-36966.446 -2495.8938L-37318.121 -3056.1483L-37893.538 -3595.7866L-38593.852 -3919.5712L-39419.076 -4027.4989L-40102.117 -3959.5883L-40696.02 -3755.8604L-41200.795 -3416.312L-41595.22 -2964.5906L-41858.063 -2424.3461L-41989.335 -1795.5754" stroke="#000000" stroke-width="246.7152" fill="#000000" fill-rule="evenodd" fill-opacity="1" />
            </g>
            <g>
                <path d="M-79097.111 -13328.089L-78978.269 -12096.317L-78621.743 -11056.754L-78027.534 -10209.399L-77245.36 -9583.3572L-76324.941 -9207.7323L-75266.278 -9082.5238L-74552.015 -9141.3382L-73886.257 -9317.7823L-73269.007 -9611.8553L-72723.002 -10011.127L-72270.978 -10503.169L-71912.936 -11087.98L-71653.728 -11747.371L-71498.202 -12463.151L-71446.36 -13235.32L-71500.931 -14018.099L-71664.641 -14743.885L-71937.493 -15412.673L-72310.39 -16001.122L-72774.237 -16485.888L-73329.034 -16866.971L-73945.072 -17141.337L-74592.639 -17305.958L-75271.735 -17360.831L-75998.127 -17300.197L-76671.159 -17118.297L-77290.835 -16815.129L-77835.931 -16407.064L-78285.226 -15910.475L-78638.72 -15325.361L-78893.382 -14683.856L-79046.178 -14018.1L-79097.111 -13328.089M-78005.705 -13344.461L-77919.303 -14240.322L-77660.094 -14999.758L-77228.079 -15622.769L-76665.703 -16085.099L-76015.407 -16362.499L-75277.193 -16454.965L-74527.458 -16361.589L-73871.705 -16081.462L-73309.935 -15614.583L-72880.952 -14976.11L-72623.562 -14181.204L-72537.766 -13229.863L-72574.449 -12606.246L-72684.499 -12037.806L-72867.916 -11524.542L-73121.971 -11075.247L-73443.935 -10698.713L-73833.809 -10394.938L-74274.919 -10172.109L-74750.59 -10038.412L-75260.821 -9993.8471L-75975.389 -10079.643L-76620.227 -10337.033L-77195.337 -10766.016L-77645.542 -11395.696L-77915.664 -12255.178L-78005.705 -13344.461M-69978.42 -17224.406L-69978.42 -12193.028L-70846.088 -12193.028L-70846.088 -11429.044L-69978.42 -11429.044L-69978.42 -10812.401L-69966.901 -10456.481L-69932.339 -10167.259L-69874.737 -9944.7339L-69756.199 -9706.1403L-69589.759 -9499.6832L-69375.419 -9325.3615L-69105.297 -9193.4831L-68771.508 -9114.3565L-68374.055 -9087.9809L-68087.865 -9098.8946L-67782.271 -9131.6371L-67457.275 -9186.2073L-67604.614 -10042.96L-67804.706 -10012.643L-67997.52 -9994.4535L-68183.059 -9988.3901L-68452.273 -10009.611L-68663.277 -10073.277L-68816.074 -10179.386L-68919.152 -10343.702L-68980.997 -10581.993L-69001.613 -10894.256L-69001.613 -11429.044L-67872.009 -11429.044L-67872.009 -12193.028L-69001.613 -12193.028L-69001.613 -17224.406L-69978.42 -17224.406M-66878.83 -17224.406L-66878.83 -12193.028L-67746.497 -12193.028L-67746.497 -11429.044L-66878.83 -11429.044L-66878.83 -10812.401L-66867.311 -10456.481L-66832.748 -10167.259L-66775.146 -9944.7339L-66656.609 -9706.1403L-66490.168 -9499.6832L-66275.829 -9325.3615L-66005.707 -9193.4831L-65671.917 -9114.3565L-65274.464 -9087.9809L-64988.275 -9098.8946L-64682.68 -9131.6371L-64357.684 -9186.2073L-64505.024 -10042.96L-64705.116 -10012.643L-64897.929 -9994.4535L-65083.468 -9988.3901L-65352.683 -10009.611L-65563.687 -10073.277L-65716.483 -10179.386L-65819.562 -10343.702L-65881.407 -10581.993L-65902.022 -10894.256L-65902.022 -11429.044L-64772.418 -11429.044L-64772.418 -12193.028L-65902.022 -12193.028L-65902.022 -17224.406L-66878.83 -17224.406M-64008.434 -10354.01L-64008.434 -9224.4065L-63026.17 -9224.4065L-63026.17 -10354.01L-64008.434 -10354.01M-64008.434 -11429.044L-63026.17 -11429.044L-63026.17 -17224.406L-64008.434 -17224.406M-57754.683 -15101.623L-56788.789 -15227.134L-56949.167 -15844.687L-57219.288 -16365.834L-57599.158 -16790.572L-58066.948 -17104.35L-58600.825 -17292.619L-59200.795 -17355.374L-59942.042 -17268.971L-60579.603 -17009.763L-61113.482 -16577.748L-61515.181 -15984.447L-61756.198 -15241.383L-61836.538 -14348.553L-61801.978 -13748.886L-61698.293 -13201.365L-61525.488 -12705.988L-61282.045 -12275.792L-60966.445 -11923.815L-60578.694 -11650.054L-60142.436 -11454.51L-59681.316 -11337.185L-59195.338 -11298.076L-58604.162 -11351.13L-58089.38 -11510.294L-57650.999 -11775.566L-57298.72 -12138.457L-57042.237 -12590.482L-56881.559 -13131.636L-57836.538 -13278.976L-57950.834 -12921.844L-58111.815 -12628.984L-58319.485 -12400.395L-58566.569 -12236.684L-58845.785 -12138.458L-59157.138 -12105.716L-59620.987 -12164.833L-60022.986 -12342.187L-60363.141 -12637.776L-60620.836 -13061.301L-60775.45 -13622.466L-60826.988 -14321.268L-60777.27 -15028.862L-60628.11 -15594.574L-60379.512 -16018.403L-60050.88 -16312.475L-59661.61 -16488.92L-59211.709 -16547.735L-58847.302 -16508.322L-58525.336 -16390.087L-58245.815 -16193.028L-58019.047 -15914.112L-57855.334 -15550.312L-57754.683 -15101.623M-51981.15 -15358.103L-50966.143 -15483.615L-51171.693 -16032.348L-51468.189 -16492.558L-51855.638 -16864.242L-52328.582 -17137.092L-52881.559 -17300.804L-53514.574 -17355.374L-54303.722 -17268.364L-54975.844 -17007.338L-55530.945 -16572.291L-55944.771 -15980.203L-56193.064 -15248.053L-56275.829 -14375.838L-56192.156 -13473.609L-55941.131 -12716.903L-55522.759 -12105.716L-54970.995 -11657.026L-54319.788 -11387.814L-53569.144 -11298.076L-52841.543 -11385.994L-52208.525 -11649.751L-51670.099 -12089.345L-51260.824 -12688.404L-51015.256 -13430.56L-50933.401 -14315.811L-50934.009 -14383.72L-50935.826 -14471.033L-50938.858 -14577.748L-55260.822 -14577.748L-55176.543 -15164.681L-54996.459 -15652.176L-54720.576 -16040.231L-54370.116 -16322.177L-53966.294 -16491.345L-53509.117 -16547.735L-53166.539 -16516.204L-52859.124 -16421.617L-52586.879 -16263.969L-52349.804 -16037.199L-52147.892 -15735.244L-51981.15 -15358.103M-51970.235 -13770.109L-52040.573 -13323.238L-52164.263 -12957.618L-52341.313 -12673.246L-52685.108 -12357.951L-53090.744 -12168.775L-53558.23 -12105.716L-53985.396 -12156.041L-54364.657 -12307.019L-54696.02 -12558.649L-54957.656 -12894.558L-55127.731 -13298.379L-55206.252 -13770.109" stroke="#000000" stroke-width="246.7152" fill="#000000" fill-rule="evenodd" fill-opacity="1" />
            </g>
        </g>
        <g>
            <g>
                <path d="M163244.32 34696.648L163244.32 42696.648L164837.77 42696.648L166731.36 37032.255L166890.22 36549.006L167017.55 36154.281L167113.35 35848.081L167221.28 36184.598L167363.16 36612.064L167539 37130.482L169454.42 42696.648L170878.7 42696.648L170878.7 34696.648L169858.24 34696.648L169858.24 41392.419L167533.54 34696.648L166578.56 34696.648L164264.78 41507.017L164264.78 34696.648L163244.32 34696.648M176242.96 35411.519L175883.7 35132.605L175533.54 34914.323L175192.48 34756.676L174847.78 34650.568L174486.7 34586.901L174109.26 34565.68L173521.72 34617.523L173032.41 34773.047L172641.32 35032.256L172356.34 35372.108L172185.35 35769.56L172128.36 36224.616L172149.88 36500.196L172214.46 36759.404L172322.08 37002.242L172464.57 37221.433L172633.74 37409.7L172829.59 37567.044L173047.56 37697.407L173283.13 37804.728L173536.27 37889.009L173761.83 37939.335L174052.87 37988.448L174409.4 38036.348L175132.75 38137.001L175716.66 38249.778L176161.1 38374.684L176164.13 38492.92L176165.95 38578.413L176166.56 38631.164L176135.63 38991.935L176042.86 39273.88L175888.25 39477.003L175596.6 39661.936L175223.7 39772.895L174769.56 39809.882L174347.85 39782.9L174006.79 39701.954L173746.37 39567.044L173545.37 39363.619L173382.56 39077.124L173257.96 38707.562L172297.53 38838.531L172403.63 39223.252L172547.34 39555.22L172728.63 39834.438L172958.43 40067.878L173247.65 40262.512L173596.3 40418.34L173994.66 40532.028L174433.04 40600.241L174911.44 40622.978L175375.29 40603.576L175777.29 40545.367L176117.44 40448.354L176399.39 40321.933L176626.77 40175.502L176799.57 40009.063L176930.54 39817.158L177032.41 39594.329L177105.17 39340.577L177132.45 39128.36L177148.82 38826.404L177154.28 38434.711L177154.28 37125.025L177161.25 36323.752L177182.17 35746.216L177217.03 35392.419L177272.51 35153.827L177355.28 34921.902L177465.33 34696.648L176439.41 34696.648L176349.67 34911.899L176284.19 35150.188L176242.96 35411.519M176161.1 37605.243L175745.15 37466.999L175210.37 37343.306L174556.73 37234.165L174192.33 37173.533L173906.74 37108.047L173699.98 37037.713L173545.37 36953.736L173416.22 36847.323L173312.53 36718.477L173236.74 36573.26L173191.27 36417.734L173176.11 36251.901L173209.15 36004.516L173308.29 35786.234L173473.52 35597.058L173702.41 35451.538L173992.54 35364.224L174343.91 35335.12L174708.32 35362.71L175044.84 35445.474L175353.46 35583.415L175622.07 35769.258L175838.53 35995.724L176002.85 36262.815L176090.76 36519.902L176143.52 36847.323L176161.1 37245.079L176161.1 37605.243M178676.79 41567.044L178676.79 42696.648L179659.05 42696.648L179659.05 41567.044L178676.79 41567.044M178676.79 40492.01L179659.05 40492.01L179659.05 34696.648L178676.79 34696.648M181148.82 34696.648L181148.82 40492.01L182032.86 40492.01L182032.86 39667.999L182521.57 40198.544L183136.39 40516.87L183877.33 40622.978L184217.18 40602.06L184538.24 40539.304L184840.5 40434.711L185108.8 40296.164L185327.99 40131.543L185498.07 39940.85L185629.04 39724.389L185730.9 39482.46L185803.66 39215.066L185833.98 38987.69L185852.17 38669.363L185858.24 38260.086L185858.24 34696.648L184875.97 34696.648L184875.97 38221.887L184863.24 38588.418L184825.04 38887.644L184761.37 39119.568L184665.27 39304.501L184529.75 39462.754L184354.82 39594.329L184148.97 39692.859L183920.69 39751.976L183669.97 39771.682L183270.69 39727.42L182909.62 39594.632L182586.75 39373.32L182333.6 39028.315L182181.72 38524.449L182131.09 37861.723L182131.09 34696.648L181148.82 34696.648" stroke="#000000" stroke-width="246.7152" fill="#000000" fill-rule="evenodd" fill-opacity="1" />
            </g>
            <g>
                <path d="M190573.11 38592.965L190691.95 39824.737L191048.48 40864.3L191642.68 41711.655L192424.86 42337.698L193345.28 42713.322L194403.94 42838.531L195118.2 42779.717L195783.96 42603.272L196401.21 42309.199L196947.22 41909.927L197399.24 41417.885L197757.28 40833.074L198016.49 40173.684L198172.02 39457.903L198223.86 38685.734L198169.29 37902.955L198005.58 37177.17L197732.73 36508.381L197359.83 35919.933L196895.98 35435.166L196341.18 35054.084L195725.15 34779.717L195077.58 34615.096L194398.48 34560.223L193672.09 34620.857L192999.06 34802.757L192379.38 35105.925L191834.29 35513.991L191384.99 36010.579L191031.5 36595.693L190776.84 37237.198L190624.04 37902.954L190573.11 38592.965M191664.51 38576.594L191750.92 37680.733L192010.12 36921.296L192442.14 36298.286L193004.52 35835.955L193654.81 35558.555L194393.03 35466.089L195142.76 35559.466L195798.51 35839.592L196360.28 36306.471L196789.27 36944.944L197046.66 37739.85L197132.45 38691.191L197095.77 39314.809L196985.72 39883.248L196802.3 40396.512L196548.25 40845.807L196226.28 41222.342L195836.41 41526.116L195395.3 41748.945L194919.63 41882.642L194409.4 41927.208L193694.83 41841.411L193049.99 41584.021L192474.88 41155.038L192024.68 40525.359L191754.55 39665.877L191664.51 38576.594M199691.8 34696.648L199691.8 39728.026L198824.13 39728.026L198824.13 40492.01L199691.8 40492.01L199691.8 41108.654L199703.32 41464.573L199737.88 41753.795L199795.48 41976.321L199914.02 42214.914L200080.46 42421.372L200294.8 42595.693L200564.92 42727.572L200898.71 42806.698L201296.16 42833.074L201582.35 42822.16L201887.95 42789.418L202212.94 42734.847L202065.6 41878.094L201865.51 41908.412L201672.7 41926.601L201487.16 41932.665L201217.94 41911.443L201006.94 41847.778L200854.14 41741.669L200751.07 41577.352L200689.22 41339.061L200668.61 41026.798L200668.61 40492.01L201798.21 40492.01L201798.21 39728.026L200668.61 39728.026L200668.61 34696.648L199691.8 34696.648M202791.39 34696.648L202791.39 39728.026L201923.72 39728.026L201923.72 40492.01L202791.39 40492.01L202791.39 41108.654L202802.91 41464.573L202837.47 41753.795L202895.07 41976.321L203013.61 42214.914L203180.05 42421.372L203394.39 42595.693L203664.51 42727.572L203998.3 42806.698L204395.75 42833.074L204681.94 42822.16L204987.54 42789.418L205312.53 42734.847L205165.19 41878.094L204965.1 41908.412L204772.29 41926.601L204586.75 41932.665L204317.54 41911.443L204106.53 41847.778L203953.73 41741.669L203850.66 41577.352L203788.81 41339.061L203768.2 41026.798L203768.2 40492.01L204897.8 40492.01L204897.8 39728.026L203768.2 39728.026L203768.2 34696.648L202791.39 34696.648M205661.78 41567.044L205661.78 42696.648L206644.05 42696.648L206644.05 41567.044L205661.78 41567.044M205661.78 40492.01L206644.05 40492.01L206644.05 34696.648L205661.78 34696.648M211915.54 36819.431L212881.43 36693.92L212721.05 36076.367L212450.93 35555.22L212071.06 35130.482L211603.27 34816.704L211069.39 34628.436L210469.42 34565.68L209728.18 34652.084L209090.62 34911.291L208556.74 35343.306L208155.04 35936.607L207914.02 36679.671L207833.68 37572.501L207868.24 38172.168L207971.92 38719.689L208144.73 39215.066L208388.17 39645.262L208703.77 39997.239L209091.52 40271L209527.78 40466.544L209988.9 40583.87L210474.88 40622.978L211066.06 40569.924L211580.84 40410.761L212019.22 40145.489L212371.5 39782.597L212627.98 39330.573L212788.66 38789.418L211833.68 38642.078L211719.38 38999.211L211558.4 39292.07L211350.73 39520.659L211103.65 39684.371L210824.43 39782.596L210513.08 39815.339L210049.23 39756.221L209647.23 39578.867L209307.08 39283.279L209049.38 38859.753L208894.77 38298.589L208843.23 37599.786L208892.95 36892.193L209042.11 36326.48L209290.71 35902.651L209619.34 35608.579L210008.61 35432.134L210458.51 35373.32L210822.92 35412.732L211144.88 35530.967L211424.4 35728.026L211651.17 36006.942L211814.88 36370.743L211915.54 36819.431M217689.07 36562.951L218704.08 36437.44L218498.52 35888.706L218202.03 35428.496L217814.58 35056.812L217341.64 34783.962L216788.66 34620.25L216155.64 34565.68L215366.5 34652.69L214694.37 34913.717L214139.27 35348.763L213725.45 35940.851L213477.15 36673.001L213394.39 37545.216L213478.06 38447.445L213729.09 39204.152L214147.46 39815.339L214699.22 40264.028L215350.43 40533.241L216101.07 40622.978L216828.68 40535.06L217461.69 40271.303L218000.12 39831.71L218409.39 39232.65L218654.96 38490.494L218736.82 37605.243L218736.21 37537.334L218734.39 37450.021L218731.36 37343.306L214409.4 37343.306L214493.67 36756.373L214673.76 36268.878L214949.64 35880.823L215300.1 35598.878L215703.92 35429.709L216161.1 35373.32L216503.68 35404.85L216811.09 35499.437L217083.34 35657.085L217320.41 35883.856L217522.33 36185.81L217689.07 36562.951M217699.98 38150.946L217629.65 38597.816L217505.96 38963.436L217328.9 39247.808L216985.11 39563.103L216579.47 39752.28L216111.99 39815.339L215684.82 39765.013L215305.56 39614.035L214974.2 39362.405L214712.56 39026.496L214542.49 38622.675L214463.97 38150.946" stroke="#000000" stroke-width="246.7152" fill="#000000" fill-rule="evenodd" fill-opacity="1" />
            </g>
        </g>
                <path d="M-111890.07 276006.46L116604.46 276006.46L116604.46 120581.86L-111890.07 120581.86L-111890.07 276006.46L-111890.07 276006.46" stroke="#FFFF00" stroke-width="770.36822" stroke-linecap="round" fill="none" />
                <path d="M-170453.79 120581.86L32119.088 120581.86L32119.088 -125027.37L-170453.79 -125027.37L-170453.79 120581.86L-170453.79 120581.86" stroke="#FFFF00" stroke-width="770.36822" stroke-linecap="round" fill="none" />
                <path d="M32119.088 120581.86L311496.86 120581.86L311496.86 -25248.622L32119.088 -25248.622L32119.088 120581.86L32119.088 120581.86" stroke="#FFFF00" stroke-width="770.36822" stroke-linecap="round" fill="none" />
    </g>
</g>
<g>
	<text x="32.9262" y="8.5569229" style="fill:#000000;font-family:Arial;" font-size="5.1062288">
Evaluation only.
	</text>
	<text x="20.584486" y="14.261537" style="fill:#000000;font-family:Arial;" font-size="5.1062288">
Created with Aspose.CAD.
	</text>
	<text x="8.5145378" y="19.966152" style="fill:#000000;font-family:Arial;" font-size="5.1062288">
Copyright 2016-2021 Aspose Pty Ltd.
	</text>
        <path d="M0 0L101.90267 0L101.90267 22.81846L0 22.81846z" stroke="#000000" stroke-width="1" fill="none" />
</g>
</svg>